v 0.008898 -0.362576 0.794940
v 0.008898 -0.375855 0.796248
v 0.033664 -0.353220 0.791579
v 0.045751 -0.331418 0.788241
v 0.041375 -0.327041 0.788241
v -0.057568 -0.371387 0.789261
v -0.086118 -0.399936 0.789261
v -0.060022 -0.401701 0.792006
v -0.015419 -0.401701 0.796399
v 0.006967 -0.379315 0.796399
v -0.015419 -0.407614 0.795816
v -0.014240 -0.408902 0.795573
v 0.005687 -0.388974 0.795573
v 0.076108 -0.294897 0.777245
v 0.105721 -0.269436 0.765064
v 0.094469 -0.242270 0.765064
v 0.089371 -0.247368 0.767251
v 0.078016 -0.250537 0.769638
v 0.155570 -0.091013 0.711503
v 0.078016 -0.058890 0.711503
v -0.428602 -0.177403 0.683796
v -0.406254 -0.232725 0.703387
v -0.348879 -0.290100 0.727999
v 0.045040 0.018786 0.683796
v -0.325824 -0.372722 0.745376
v -0.318934 -0.381010 0.747871
v -0.310957 -0.387240 0.750207
v -0.283708 -0.400291 0.756832
v -0.212301 -0.402067 0.768865
v -0.114133 -0.402067 0.785006
v -0.110479 -0.401956 0.785589
v -0.409600 -0.240806 0.703387
v -0.353844 -0.340652 0.732846
v -0.336849 -0.363242 0.740839
v -0.305333 -0.400820 0.750207
v -0.295192 -0.404929 0.752766
v -0.162378 -0.404830 0.776618
v -0.014057 -0.409285 0.795481
v 0.018450 -0.446468 0.780261
v 0.023353 -0.444437 0.780261
v 0.012576 -0.417758 0.789708
v -0.012173 -0.410851 0.794913
v 0.012766 -0.414341 0.790240
v 0.032671 -0.366283 0.790240
v 0.178225 -0.068358 0.697636
v 0.107114 -0.268998 0.764383
v 0.160662 -0.268998 0.735760
v 0.251610 -0.216385 0.679612
v 0.203604 -0.037224 0.679612
v 0.331048 0.225326 0.535102
v 0.421179 0.346012 0.445626
v 0.391671 0.375519 0.445626
v 0.389086 0.373590 0.447542
v 0.273813 0.126082 0.596346
v 0.045040 0.044999 0.672452
v 0.031060 0.469522 0.447542
v 0.031060 0.089325 0.650761
v -0.041751 0.595387 0.369838
v -0.046975 0.595021 0.369285
v -0.544800 0.461630 0.369285
v -0.658634 0.380163 0.396526
v -0.679601 0.358906 0.404885
v -0.690799 0.345171 0.410623
v -0.706692 0.330950 0.413929
v -0.722521 0.314767 0.418095
v -0.719737 0.233212 0.453891
v -0.687923 0.159212 0.491622
v -0.677086 0.141214 0.501354
v -0.552254 -0.038507 0.601515
v -0.485025 -0.120980 0.649261
v -0.731514 0.312731 0.415142
v -0.736604 0.309248 0.414460
v -0.758265 0.287586 0.414460
v -0.742625 0.263859 0.431169
v -0.464650 -0.178467 0.668386
v -0.465966 -0.177235 0.667505
v -0.326554 -0.401668 0.740839
v -0.326208 -0.401532 0.741044
v -0.327594 -0.403061 0.739807
v -0.311900 -0.418755 0.739807
v -0.295239 -0.406312 0.752159
v -0.183955 -0.412477 0.769441
v 0.024348 -0.468291 0.769441
v 0.024348 -0.465169 0.771109
v 0.032177 -0.481826 0.761085
v 0.043197 -0.493628 0.753198
v 0.065226 -0.487725 0.753198
v 0.063317 -0.482847 0.756079
v 0.054924 -0.476006 0.760939
v 0.074115 -0.483216 0.751339
v 0.067378 -0.489333 0.751602
v 0.073769 -0.487887 0.749505
v 0.077223 -0.484433 0.749505
v 0.082978 -0.484721 0.746387
v 0.105992 -0.473025 0.735760
v 0.357790 -0.193011 0.597460
v 0.612390 -0.193011 0.388515
v 0.740849 -0.092181 0.266632
v 0.763007 -0.067437 0.244409
v 0.677375 0.363061 0.244409
v 0.629295 0.401257 0.277632
v 0.567159 0.386807 0.330984
v 0.264622 -0.216385 0.670105
v 0.486978 0.390155 0.388911
v 0.623251 0.427848 0.268918
v 0.548024 0.540434 0.268918
v 0.495255 0.487664 0.334339
v 0.465195 0.485113 0.351161
v 0.591642 0.681677 0.142292
v 0.453124 0.774232 0.142292
v 0.444179 0.794196 0.129458
v -0.035312 0.621054 0.349824
v 0.437170 0.826714 0.103914
v 0.382631 0.895367 0.056476
v 0.170042 0.937653 0.056476
v 0.132280 0.940478 0.060322
v 0.116780 0.933130 0.068883
v 0.015921 0.842814 0.159466
v -0.035312 0.777544 0.221396
v -0.100808 0.764517 0.221396
v -0.258829 0.671521 0.271920
v -0.289574 0.655810 0.277379
v -0.507087 0.496314 0.351327
v -0.722617 0.320309 0.413929
v -0.753971 0.297813 0.411400
v -0.761448 0.290337 0.411400
v -0.718856 0.198033 0.461422
v -0.766857 0.288388 0.407279
v -0.772838 0.258317 0.407279
v -0.420226 -0.407192 0.667505
v -0.388159 -0.414101 0.692694
v -0.379652 -0.412124 0.699999
v -0.343360 -0.413638 0.726217
v -0.366689 -0.446232 0.692694
v -0.344219 -0.423762 0.720551
v -0.313511 -0.421156 0.737737
v -0.372906 -0.466364 0.674646
v -0.309865 -0.508487 0.674646
v -0.276667 -0.582576 0.627016
v -0.268256 -0.590311 0.623010
v -0.209772 -0.663930 0.572140
v -0.073271 -0.691080 0.572140
v -0.041209 -0.662369 0.600938
v -0.006211 -0.617782 0.643243
v 0.043314 -0.530505 0.722954
v 0.044163 -0.528617 0.724642
v 0.044163 -0.497479 0.750195
v 0.062559 -0.504121 0.741741
v 0.048294 -0.523418 0.728235
v 0.065261 -0.500938 0.743539
v 0.067061 -0.496920 0.746122
v 0.077547 -0.489914 0.746122
v 0.079320 -0.488404 0.746363
v 0.079340 -0.488360 0.746387
v 0.127167 -0.467090 0.721452
v 0.181496 -0.447578 0.685578
v 0.232305 -0.424812 0.652914
v 0.324486 -0.382170 0.593913
v 0.400306 -0.354852 0.536149
v 0.591621 -0.213416 0.402228
v 0.611468 -0.197650 0.388515
v 0.770639 -0.067269 0.235139
v 0.836443 -0.009559 0.143821
v 0.888449 0.074522 0.064226
v 0.888511 0.074717 0.064113
v 0.886761 0.096123 0.062113
v 0.868834 0.209311 0.062113
v 0.857742 0.221363 0.073301
v 0.763754 -0.067269 0.243529
v 0.756696 0.355180 0.156986
v 0.717733 0.511070 0.110008
v 0.643586 0.656590 0.110008
v 0.631512 0.701706 0.093425
v 0.612888 0.702923 0.109770
v 0.651624 0.772603 0.007979
v 0.609418 0.814809 0.007979
v 0.605468 0.816567 0.010034
v 0.588089 0.832162 0.006382
v 0.565740 0.838143 0.014596
v 0.473254 0.885267 0.014596
v 0.381353 0.908238 0.042290
v 0.365224 0.920415 0.032204
v 0.303367 0.946842 0.016326
v 0.267049 0.958286 0.011580
v 0.240404 0.960566 0.014977
v 0.205336 0.966119 0.014977
v 0.170415 0.968973 0.018240
v 0.145601 0.952263 0.043389
v 0.103341 0.931002 0.068883
v 0.091340 0.923570 0.075622
v 0.006811 0.845780 0.154095
v -0.615993 0.440824 0.351327
v -0.776476 0.287725 0.396610
v -0.799889 0.286551 0.370125
v -0.795167 0.285869 0.376011
v -0.787257 0.261575 0.390339
v -0.799966 0.286554 0.370031
v -0.807928 0.283523 0.360916
v -0.819543 0.277507 0.347922
v -0.827670 0.268676 0.339723
v -0.828795 0.261575 0.339723
v -0.842579 0.245997 0.319921
v -0.863798 0.214487 0.287985
v -0.898913 0.135571 0.229968
v -0.910920 0.102243 0.208905
v -0.927475 0.050868 0.178818
v -0.935024 0.023071 0.164254
v -0.939391 -0.004959 0.153523
v -0.931036 -0.107199 0.143973
v -0.897910 -0.316350 0.143973
v -0.872341 -0.344133 0.169766
v -0.840500 -0.360621 0.205383
v -0.801436 -0.388655 0.243036
v -0.450914 -0.423478 0.629359
v -0.717120 -0.554132 0.243036
v -0.545445 -0.562743 0.437241
v -0.458345 -0.507079 0.571281
v -0.416362 -0.509819 0.608126
v -0.457637 -0.650549 0.437241
v -0.444219 -0.646744 0.453415
v -0.410833 -0.594502 0.533808
v -0.202963 -0.769669 0.453415
v -0.200773 -0.754515 0.472303
v -0.106926 -0.723956 0.527651
v -0.082599 -0.704477 0.554991
v -0.078111 -0.700703 0.560239
v -0.074232 -0.695330 0.567147
v -0.195156 -0.784746 0.436549
v -0.182833 -0.786698 0.436549
v -0.161920 -0.772617 0.457744
v -0.039146 -0.663042 0.599721
v -0.037427 -0.661744 0.600796
v -0.006902 -0.619207 0.641795
v 0.189906 -0.444868 0.679523
v 0.606774 -0.202765 0.390938
v 0.611674 -0.198006 0.388065
v 0.611875 -0.197609 0.388065
v 0.615209 -0.195217 0.384854
v 0.740822 -0.099314 0.265066
v 0.742534 -0.097355 0.263579
v 0.901801 0.099260 0.033203
v 0.906168 0.109340 0.022549
v 0.900704 0.150841 0.022549
v 0.899337 0.165032 0.021007
v 0.875006 0.208228 0.051610
v 0.823796 0.397513 0.001725
v 0.723575 0.639467 0.001725
v 0.685437 0.768527 -0.040246
v 0.654661 0.774996 0.001509
v 0.685572 0.769942 -0.042217
v 0.663690 0.798458 -0.042217
v 0.658651 0.802116 -0.038607
v 0.651345 0.803142 -0.028061
v 0.634539 0.811848 -0.018414
v 0.612176 0.829009 -0.018414
v 0.586149 0.841390 -0.006140
v 0.562577 0.858910 -0.014509
v 0.473365 0.885271 0.014502
v 0.432393 0.902243 0.014502
v 0.236796 0.968283 0.002472
v 0.220128 0.969889 0.004282
v 0.180628 0.975089 0.004282
v 0.179915 0.975152 0.004342
v 0.170415 0.970008 0.016304
v 0.158266 0.968408 0.016304
v 0.136411 0.954605 0.036744
v 0.119750 0.945221 0.048549
v -0.452815 0.698175 0.075622
v -0.488232 0.664850 0.109842
v -0.488358 0.664756 0.109887
v -0.598186 0.525538 0.236393
v -0.788930 0.379174 0.236393
v -0.794068 0.372098 0.241466
v -0.804519 0.297725 0.348800
v -0.799268 0.292474 0.363810
v -0.816857 0.281644 0.348800
v -0.819631 0.279456 0.346279
v -0.826349 0.276334 0.336329
v -0.826507 0.276166 0.336166
v -0.829762 0.268310 0.336166
v -0.841762 0.254461 0.319005
v -0.843810 0.250826 0.316429
v -0.857935 0.228461 0.295511
v -0.940995 -0.013975 0.148300
v -0.948387 -0.063090 0.122375
v -0.941062 -0.146546 0.115524
v -0.940791 -0.150986 0.114767
v -0.925330 -0.311541 0.097324
v -0.925618 -0.312543 0.096036
v -0.925156 -0.326102 0.086581
v -0.906032 -0.456359 0.022684
v -0.890774 -0.512755 0.007820
v -0.881079 -0.536161 0.007820
v -0.873212 -0.562784 -0.000838
v -0.758652 -0.586865 0.154588
v -0.875167 -0.583359 -0.029538
v -0.870057 -0.594098 -0.034602
v -0.833328 -0.641963 -0.034602
v -0.771874 -0.650599 0.054091
v -0.753327 -0.632053 0.107113
v -0.469427 -0.665508 0.405386
v -0.562451 -0.811294 0.054091
v -0.496768 -0.842544 0.085069
v -0.438615 -0.837020 0.166190
v -0.435041 -0.829091 0.183450
v -0.212729 -0.818975 0.370936
v -0.207102 -0.810521 0.388138
v -0.278571 -0.903311 0.166190
v -0.270697 -0.901053 0.176318
v -0.251732 -0.883220 0.223440
v -0.213806 -0.834179 0.342224
v -0.191898 -0.806647 0.399129
v -0.185252 -0.797166 0.417562
v -0.202004 -0.822715 0.366578
v -0.161386 -0.772753 0.457358
v -0.016047 -0.662715 0.582766
v -0.020871 -0.676993 0.560239
v -0.015156 -0.664696 0.578457
v 0.286103 -0.433532 0.578457
v 0.397855 -0.375642 0.514306
v 0.482591 -0.363736 0.392017
v 0.484096 -0.362642 0.390938
v 0.919875 0.158313 -0.039383
v 0.913330 0.114111 -0.001389
v 0.922228 0.126941 -0.035488
v 0.931300 0.145882 -0.072430
v 0.934248 0.157875 -0.086603
v 0.911093 0.110760 0.006841
v 0.937218 0.165505 -0.105328
v 0.942059 0.180803 -0.139180
v 0.944075 0.249968 -0.226243
v 0.921279 0.330385 -0.243983
v 0.812346 0.641697 -0.243983
v 0.803235 0.670652 -0.251880
v 0.785421 0.701733 -0.238348
v 0.750432 0.746598 -0.193408
v 0.741200 0.756156 -0.178962
v 0.694840 0.776347 -0.074876
v 0.736382 0.761496 -0.174444
v 0.694547 0.789570 -0.099652
v 0.692259 0.787947 -0.089423
v 0.686873 0.797244 -0.099652
v 0.682043 0.800918 -0.096628
v 0.655302 0.811218 -0.053647
v 0.630593 0.824908 -0.041514
v 0.622007 0.830304 -0.041514
v 0.561993 0.860254 -0.017528
v 0.553316 0.865226 -0.021305
v 0.436247 0.902062 0.010624
v 0.329211 0.939516 0.010624
v 0.207552 0.979075 -0.018860
v 0.190041 0.985797 -0.034512
v 0.178845 0.987058 -0.034512
v 0.178845 0.978861 -0.007489
v 0.162479 0.981285 -0.021558
v 0.162776 0.991008 -0.053504
v 0.154966 0.994048 -0.072674
v 0.148034 0.996243 -0.088012
v 0.096463 0.997746 -0.152929
v 0.088798 0.996516 -0.157750
v 0.069362 0.993071 -0.168893
v -0.011165 0.970242 -0.186658
v -0.113997 0.934261 -0.186658
v -0.182627 0.912666 -0.205376
v -0.385000 0.828840 -0.205376
v -0.399528 0.820514 -0.199050
v -0.475150 0.782774 -0.229275
v -0.494185 0.772729 -0.235195
v -0.570183 0.731038 -0.253929
v -0.671220 0.667551 -0.253929
v -0.703150 0.619972 -0.168871
v -0.701293 0.617356 -0.157180
v -0.707808 0.615314 -0.168871
v -0.714839 0.606068 -0.163082
v -0.806519 0.368064 0.219458
v -0.806010 0.367703 0.221732
v -0.843232 0.270480 0.295511
v -0.841041 0.269836 0.303534
v -0.834502 0.323528 0.219458
v -0.928163 0.055517 0.174823
v -0.932700 0.043694 0.164254
v -0.949466 -0.068490 0.116809
v -0.941479 -0.155627 0.110777
v -0.940381 -0.168676 0.108870
v -0.898602 -0.502669 -0.006453
v -0.896869 -0.512442 -0.012055
v -0.889584 -0.538141 -0.017725
v -0.884879 -0.555761 -0.024829
v -0.876358 -0.582840 -0.032213
v -0.869284 -0.625827 -0.093842
v -0.861741 -0.640944 -0.099883
v -0.858471 -0.646146 -0.099883
v -0.855972 -0.650657 -0.102099
v -0.845773 -0.654409 -0.085246
v -0.822976 -0.736314 -0.239775
v -0.817702 -0.743249 -0.244117
v -0.810397 -0.750554 -0.244117
v -0.804549 -0.757403 -0.249554
v -0.789919 -0.779204 -0.288528
v -0.598174 -0.899686 -0.288528
v -0.527035 -0.935187 -0.260095
v -0.463471 -0.945646 -0.168966
v -0.458792 -0.929734 -0.110690
v -0.297927 -0.937278 0.051178
v -0.287659 -0.923211 0.101365
v -0.376757 -0.975990 -0.168966
v -0.368584 -0.975752 -0.158679
v -0.321126 -0.957279 -0.042193
v -0.304809 -0.947783 0.008299
v -0.297795 -0.941635 0.036864
v -0.274864 -0.921317 0.112363
v -0.270697 -0.906856 0.158485
v -0.274864 -0.925733 0.097805
v -0.260277 -0.918058 0.117689
v -0.259983 -0.908442 0.149276
v -0.043758 -0.842294 0.117689
v -0.051590 -0.815663 0.215226
v -0.002664 -0.703333 0.467426
v 0.137662 -0.812441 -0.142405
v 0.154085 -0.804245 -0.148968
v 0.397244 -0.651459 -0.148968
v 0.405854 -0.638627 -0.126028
v 0.389780 -0.615973 -0.024783
v 0.525158 -0.519321 -0.126028
v 0.643769 -0.363357 -0.028370
v 0.670457 -0.294072 0.082992
v 0.715609 -0.212579 0.123008
v 0.810457 -0.061632 0.123008
v 0.902440 0.094934 0.029484
v 0.903703 0.096713 0.025987
v 0.945865 0.206136 -0.198289
v 0.950360 0.246475 -0.284269
v 0.945865 0.248283 -0.240437
v 0.942927 0.181357 -0.147438
v 0.950360 0.247914 -0.289116
v 0.948608 0.263630 -0.322612
v 0.942995 0.290940 -0.352288
v 0.940300 0.303270 -0.363885
v 0.918236 0.376004 -0.363885
v 0.903072 0.423033 -0.353900
v 0.885616 0.472917 -0.353900
v 0.863144 0.534192 -0.345930
v 0.836128 0.606021 -0.331370
v 0.809509 0.663965 -0.282313
v 0.800658 0.680524 -0.282313
v 0.787614 0.703442 -0.273352
v 0.780464 0.714084 -0.256878
v 0.766722 0.732504 -0.242558
v 0.759315 0.741531 -0.242558
v 0.731448 0.769398 -0.190570
v 0.731415 0.769427 -0.190549
v 0.726799 0.773215 -0.190549
v 0.677151 0.806573 -0.113692
v 0.667630 0.811992 -0.109970
v 0.533835 0.883507 -0.109970
v 0.528736 0.885850 -0.114287
v 0.476615 0.904087 -0.114287
v 0.425316 0.920629 -0.103395
v 0.182130 0.994398 -0.103395
v 0.182271 0.994048 -0.099979
v 0.162434 0.998447 -0.124797
v 0.146663 1.000000 -0.124797
v 0.146663 0.998386 -0.108402
v 0.118941 1.000000 -0.152520
v 0.102547 0.998386 -0.152520
v 0.060830 0.991206 -0.176919
v 0.007539 0.977022 -0.198940
v -0.003933 0.973769 -0.201455
v -0.023637 0.967791 -0.201455
v -0.051331 0.958861 -0.207335
v -0.167564 0.918189 -0.207335
v -0.638948 0.691028 -0.275073
v -0.665242 0.674505 -0.275073
v -0.667908 0.672735 -0.274440
v -0.672196 0.668613 -0.265012
v -0.680154 0.659595 -0.259237
v -0.681123 0.658413 -0.259237
v -0.688537 0.648475 -0.251511
v -0.720069 0.601543 -0.178859
v -0.734157 0.576793 -0.169183
v -0.835498 0.324302 0.209660
v -0.803478 0.447101 -0.169183
v -0.869951 0.288747 0.035573
v -0.868796 0.288818 0.048155
v -0.926392 0.102686 0.035573
v -0.939910 0.036905 0.107049
v -0.940995 0.026582 0.107743
v -0.950360 -0.068490 0.107743
v -0.950360 -0.079924 0.096310
v -0.940381 -0.181237 0.096310
v -0.878056 -0.598482 -0.092985
v -0.873589 -0.613210 -0.092985
v -0.869643 -0.625444 -0.095582
v -0.831284 -0.716825 -0.213739
v -0.823027 -0.736271 -0.239928
v -0.808250 -0.762072 -0.306469
v -0.796929 -0.778920 -0.332551
v -0.796003 -0.777996 -0.315025
v -0.812880 -0.754603 -0.290872
v -0.791431 -0.780851 -0.305694
v -0.788759 -0.788772 -0.365282
v -0.764488 -0.813043 -0.410560
v -0.761361 -0.815609 -0.410560
v -0.723951 -0.843515 -0.439646
v -0.698892 -0.859261 -0.439646
v -0.684918 -0.867215 -0.445108
v -0.535320 -0.947176 -0.445108
v -0.495489 -0.965474 -0.411384
v -0.495534 -0.964749 -0.403474
v -0.383908 -0.986685 -0.271040
v -0.474185 -0.972344 -0.415908
v -0.398247 -0.995380 -0.415908
v -0.378137 -0.999512 -0.394058
v -0.382841 -0.987818 -0.280033
v -0.371113 -0.987818 -0.268307
v -0.368584 -0.983861 -0.230651
v -0.373177 -1.000000 -0.394058
v -0.371113 -1.000000 -0.391996
v -0.351885 -0.998106 -0.391996
v -0.346156 -0.983861 -0.253081
v -0.333870 -0.994404 -0.411569
v -0.006916 -0.895223 -0.411569
v 0.040590 -0.879906 -0.401482
v 0.080741 -0.865856 -0.401482
v 0.135678 -0.840619 -0.447995
v 0.292294 -0.756906 -0.447995
v 0.320700 -0.740736 -0.436890
v 0.333141 -0.732377 -0.417630
v 0.357241 -0.714401 -0.398894
v 0.404681 -0.659565 -0.233447
v 0.362834 -0.709811 -0.398894
v 0.386400 -0.689021 -0.383808
v 0.434441 -0.640979 -0.294182
v 0.484906 -0.583776 -0.257564
v 0.496586 -0.569545 -0.257564
v 0.662440 -0.347204 -0.084704
v 0.704203 -0.280738 -0.084704
v 0.766302 -0.171642 -0.042054
v 0.917731 0.111662 -0.042054
v 0.920343 0.117350 -0.046868
v 0.932988 0.147472 -0.085818
v 0.937218 0.159604 -0.111229
v 0.940536 0.169726 -0.134800
v 0.946370 0.263630 -0.345334
v 0.942995 0.265786 -0.377441
v 0.942699 0.265786 -0.380072
v 0.942190 0.267857 -0.382520
v 0.937951 0.305482 -0.382520
v 0.937322 0.307123 -0.383987
v 0.936242 0.310046 -0.386119
v 0.919799 0.368048 -0.373325
v 0.908025 0.401696 -0.373325
v 0.833055 0.611728 -0.331621
v 0.808611 0.660708 -0.312043
v 0.794315 0.683462 -0.312043
v 0.779222 0.710700 -0.298667
v 0.774430 0.716436 -0.299572
v 0.758971 0.741188 -0.249060
v 0.769509 0.720638 -0.303479
v 0.744246 0.745900 -0.303479
v 0.746862 0.748750 -0.273772
v 0.726486 0.772303 -0.202708
v 0.717489 0.756207 -0.346486
v 0.684442 0.774518 -0.362715
v 0.619845 0.815106 -0.362715
v 0.586265 0.831864 -0.376135
v 0.553093 0.837322 -0.423694
v 0.540644 0.841240 -0.427090
v 0.392052 0.893233 -0.427090
v 0.365685 0.904296 -0.412887
v 0.361329 0.906235 -0.409685
v 0.299788 0.936624 -0.341201
v 0.293070 0.940157 -0.332045
v 0.199030 0.976254 -0.247982
v 0.172298 0.986718 -0.221819
v 0.163313 0.996260 -0.146123
v 0.139933 0.992476 -0.203074
v 0.124547 0.996260 -0.184889
v 0.118941 0.997381 -0.179110
v 0.109506 0.996516 -0.178458
v 0.078084 0.992976 -0.178458
v -0.037908 0.962542 -0.211685
v -0.049893 0.959144 -0.209041
v -0.161310 0.920157 -0.209041
v -0.673464 0.665039 -0.282344
v -0.682115 0.642402 -0.319181
v -0.710296 0.579967 -0.392230
v -0.738517 0.520218 -0.453853
v -0.742663 0.513618 -0.453853
v -0.744584 0.509770 -0.455390
v -0.803386 0.447107 -0.170187
v -0.763115 0.397160 -0.616834
v -0.784594 0.328893 -0.635453
v -0.786086 0.324304 -0.636332
v -0.837275 0.178015 -0.636332
v -0.850447 0.151341 -0.606648
v -0.852297 0.147825 -0.601855
v -0.861050 0.153678 -0.518313
v -0.906863 0.110540 -0.154856
v -0.867708 0.011053 -0.601855
v -0.891371 -0.085202 -0.488098
v -0.898602 -0.085202 -0.423919
v -0.906863 -0.079924 -0.345319
v -0.847853 -0.471432 -0.488098
v -0.831358 -0.632162 -0.473761
v -0.831456 -0.635484 -0.469579
v -0.835728 -0.638341 -0.428806
v -0.782350 -0.775815 -0.469579
v -0.781833 -0.778966 -0.465063
v -0.787943 -0.783711 -0.404959
v -0.786258 -0.787911 -0.398658
v -0.769753 -0.798192 -0.465063
v -0.771996 -0.800250 -0.441691
v -0.764191 -0.812746 -0.416187
v -0.768210 -0.799227 -0.467820
v -0.738890 -0.828546 -0.467820
v -0.736814 -0.830125 -0.469121
v -0.732194 -0.833988 -0.468392
v -0.731517 -0.834362 -0.468724
v -0.669179 -0.873531 -0.468724
v -0.650773 -0.882717 -0.476080
v -0.593339 -0.913639 -0.473559
v -0.536096 -0.946448 -0.448637
v -0.482412 -0.963340 -0.463280
v -0.434256 -0.980191 -0.463280
v -0.403654 -0.988865 -0.470030
v -0.398787 -0.994034 -0.429027
v -0.398531 -0.988716 -0.476480
v -0.372308 -0.991671 -0.476480
v -0.372308 -0.992672 -0.467591
v -0.373177 -0.994034 -0.454637
v -0.333174 -0.992672 -0.428457
v -0.336673 -0.982911 -0.518592
v -0.322476 -0.981312 -0.518592
v -0.284718 -0.966818 -0.552344
v -0.219792 -0.942859 -0.599704
v -0.206786 -0.938462 -0.604728
v -0.161261 -0.925556 -0.594685
v 0.035412 -0.856737 -0.594685
v 0.160415 -0.817404 -0.560591
v 0.166045 -0.814179 -0.563041
v 0.233617 -0.780457 -0.536034
v 0.270426 -0.757329 -0.536034
v 0.277460 -0.753431 -0.532580
v 0.325842 -0.734794 -0.454817
v 0.339675 -0.724273 -0.446155
v 0.372359 -0.691591 -0.446155
v 0.399006 -0.668835 -0.425003
v 0.443898 -0.615126 -0.416531
v 0.447766 -0.608145 -0.419959
v 0.793885 -0.057298 -0.419959
v 0.825034 0.005119 -0.444907
v 0.884054 0.108094 -0.400074
v 0.897168 0.129534 -0.381441
v 0.934536 0.169356 -0.200191
v 0.941069 0.254996 -0.381441
v 0.941597 0.255999 -0.380072
v 0.946370 0.252807 -0.334512
v 0.949941 0.247745 -0.293194
v 0.932426 0.267857 -0.414709
v 0.931544 0.268111 -0.417519
v 0.930636 0.268111 -0.420311
v 0.927148 0.294601 -0.420311
v 0.931980 0.311440 -0.398651
v 0.908123 0.399623 -0.375411
v 0.889933 0.443538 -0.375411
v 0.802386 0.652995 -0.346273
v 0.799964 0.658083 -0.343873
v 0.745062 0.729632 -0.343873
v 0.720781 0.747258 -0.361273
v 0.662477 0.755451 -0.445419
v 0.640634 0.766766 -0.457956
v 0.608504 0.791421 -0.457956
v 0.563827 0.812677 -0.479027
v 0.545146 0.810902 -0.505087
v 0.480769 0.837568 -0.505087
v 0.472864 0.844417 -0.495291
v 0.440325 0.862746 -0.472237
v 0.326160 0.917567 -0.389088
v 0.292862 0.935598 -0.347154
v 0.103215 0.989254 -0.200058
v 0.017827 0.978013 -0.200058
v -0.088506 0.934041 -0.247532
v -0.135319 0.921377 -0.235195
v -0.650671 0.679998 -0.286401
v -0.654988 0.676789 -0.287934
v -0.751046 0.448827 -0.553783
v -0.758056 0.398947 -0.625770
v -0.760352 0.395956 -0.625770
v -0.762488 0.397434 -0.618243
v -0.759072 0.382488 -0.644559
v -0.758526 0.367488 -0.663073
v -0.800114 0.244439 -0.682554
v -0.805218 0.229436 -0.683035
v -0.820444 0.188623 -0.679901
v -0.822560 0.183669 -0.678629
v -0.823139 0.182641 -0.677901
v -0.832005 0.090582 -0.687903
v -0.836450 0.056810 -0.687903
v -0.840466 0.011053 -0.691659
v -0.838620 0.006790 -0.696164
v -0.837136 0.001328 -0.699025
v -0.829616 -0.033497 -0.710882
v -0.818341 -0.094006 -0.725575
v -0.816671 -0.104056 -0.727344
v -0.808031 -0.202498 -0.719262
v -0.789079 -0.346451 -0.719262
v -0.764045 -0.606427 -0.691018
v -0.764902 -0.615193 -0.684837
v -0.775057 -0.650583 -0.639318
v -0.773188 -0.657486 -0.637500
v -0.767840 -0.771549 -0.522726
v -0.760174 -0.688907 -0.637500
v -0.755001 -0.706412 -0.631806
v -0.754466 -0.711326 -0.627695
v -0.759655 -0.765956 -0.551490
v -0.767781 -0.771574 -0.522856
v -0.762523 -0.795191 -0.493235
v -0.752296 -0.775547 -0.551490
v -0.748828 -0.800231 -0.515866
v -0.746771 -0.803065 -0.513836
v -0.723920 -0.820599 -0.513836
v -0.709131 -0.839345 -0.496801
v -0.564543 -0.922150 -0.482924
v -0.462888 -0.964257 -0.482924
v -0.400987 -0.981003 -0.499239
v -0.398538 -0.988491 -0.477220
v -0.387763 -0.977208 -0.516248
v -0.373872 -0.978546 -0.517757
v -0.351377 -0.981508 -0.517757
v -0.336673 -0.982799 -0.518964
v -0.297623 -0.965878 -0.560238
v -0.295310 -0.965249 -0.561449
v -0.229992 -0.944202 -0.599704
v -0.186740 -0.925802 -0.623475
v -0.151449 -0.905923 -0.648477
v -0.141383 -0.901283 -0.652189
v -0.099320 -0.883313 -0.662986
v -0.078974 -0.875723 -0.664548
v -0.018065 -0.859244 -0.648497
v 0.128022 -0.798733 -0.648497
v 0.179383 -0.783556 -0.631795
v 0.181057 -0.782312 -0.632389
v 0.201162 -0.772746 -0.622907
v 0.275691 -0.715558 -0.622907
v 0.279968 -0.713343 -0.620451
v 0.288917 -0.722292 -0.584034
v 0.285883 -0.701923 -0.627006
v 0.484513 -0.443064 -0.627006
v 0.528675 -0.350241 -0.670785
v 0.633707 -0.177337 -0.681944
v 0.727338 -0.051355 -0.637212
v 0.749533 -0.027766 -0.614420
v 0.806322 0.109334 -0.614420
v 0.881281 0.195834 -0.507226
v 0.888500 0.202891 -0.495462
v 0.913815 0.242975 -0.457971
v 0.921069 0.250443 -0.442561
v 0.934360 0.254792 -0.403478
v 0.912551 0.242975 -0.460335
v 0.925680 0.294497 -0.423084
v 0.911718 0.242782 -0.461847
v 0.902894 0.298493 -0.461847
v 0.884254 0.318748 -0.480652
v 0.864439 0.329009 -0.502816
v 0.687002 0.677249 -0.502816
v 0.670310 0.688981 -0.515253
v 0.550597 0.777376 -0.552553
v 0.622064 0.691401 -0.569831
v 0.548540 0.764926 -0.569831
v 0.548076 0.774177 -0.559364
v 0.544058 0.808485 -0.510345
v 0.511777 0.807017 -0.537570
v 0.522694 0.787111 -0.559364
v 0.520503 0.790163 -0.556422
v 0.481191 0.835165 -0.509174
v 0.430939 0.860355 -0.479023
v 0.454657 0.839368 -0.509174
v 0.272314 0.913167 -0.384058
v -0.102578 0.853790 -0.384058
v -0.152081 0.808233 -0.430016
v -0.340591 0.665887 -0.547903
v -0.401677 0.580767 -0.629948
v -0.747126 0.404752 -0.629948
v -0.751296 0.398820 -0.634368
v -0.757230 0.398121 -0.628133
v -0.752570 0.373430 -0.663090
v -0.757922 0.362116 -0.670191
v -0.829000 0.108372 -0.688228
v -0.829336 0.105623 -0.688401
v -0.831829 0.089893 -0.688401
v -0.799601 -0.175994 -0.741561
v -0.786499 -0.336323 -0.726584
v -0.778587 -0.386281 -0.726584
v -0.777689 -0.393597 -0.726126
v -0.760116 -0.599067 -0.699933
v -0.758064 -0.642551 -0.676593
v -0.751237 -0.655951 -0.676593
v -0.746115 -0.675089 -0.669559
v -0.752305 -0.716180 -0.625168
v -0.746045 -0.769296 -0.569361
v -0.735577 -0.732907 -0.625168
v -0.733727 -0.769793 -0.583441
v -0.734415 -0.770666 -0.581579
v -0.445355 -0.916726 -0.583441
v -0.434702 -0.919388 -0.586651
v -0.397549 -0.947442 -0.563417
v -0.392104 -0.952454 -0.558361
v -0.317712 -0.964237 -0.558361
v -0.198295 -0.922858 -0.631829
v -0.185197 -0.911269 -0.648477
v 0.107860 -0.797816 -0.665501
v -0.073612 -0.872984 -0.665501
v 0.185257 -0.762333 -0.659494
v 0.114557 -0.794149 -0.665887
v 0.243216 -0.719385 -0.657026
v 0.289250 -0.673351 -0.657026
v 0.670376 -0.095853 -0.689313
v 0.723923 0.009237 -0.689313
v 0.724531 0.010349 -0.689249
v 0.727402 0.017280 -0.689249
v 0.730143 0.022643 -0.688296
v 0.760827 0.063277 -0.662884
v 0.802475 0.108534 -0.620870
v 0.802742 0.108707 -0.620509
v 0.880958 0.197102 -0.508144
v 0.775173 0.108534 -0.654137
v 0.846105 0.326358 -0.525668
v 0.748083 0.102412 -0.685965
v 0.743787 0.102412 -0.690795
v 0.733804 0.110249 -0.700267
v 0.732492 0.112358 -0.701270
v 0.717093 0.148553 -0.710490
v 0.679846 0.335802 -0.710490
v 0.679342 0.342927 -0.709463
v 0.650501 0.374285 -0.724395
v 0.646931 0.380590 -0.724811
v 0.605729 0.476722 -0.715780
v 0.596942 0.515387 -0.703110
v 0.612018 0.684981 -0.585291
v 0.540124 0.689676 -0.648385
v 0.537163 0.604852 -0.703110
v 0.536641 0.606216 -0.702752
v 0.526845 0.646675 -0.686934
v 0.539392 0.691328 -0.647519
v 0.535880 0.745117 -0.600315
v 0.526946 0.744323 -0.606522
v 0.524927 0.700994 -0.647519
v 0.518869 0.729107 -0.625436
v 0.454657 0.768722 -0.595257
v 0.448853 0.743035 -0.625436
v 0.353795 0.657914 -0.710811
v 0.338089 0.650193 -0.717187
v 0.334151 0.649900 -0.716785
v -0.216051 0.540458 -0.716785
v -0.407026 0.526934 -0.689279
v -0.436436 0.499884 -0.703284
v -0.457756 0.487813 -0.704686
v -0.729434 0.371373 -0.679162
v -0.758391 0.354122 -0.677237
v -0.824538 0.130805 -0.688228
v -0.792865 -0.195343 -0.746036
v -0.770851 -0.427976 -0.726126
v -0.767271 -0.454237 -0.724279
v -0.756993 -0.599377 -0.703375
v -0.755827 -0.600644 -0.703978
v -0.748993 -0.630714 -0.694125
v -0.733397 -0.654056 -0.694125
v -0.730241 -0.667088 -0.689030
v -0.738723 -0.675571 -0.676046
v -0.735035 -0.732059 -0.626473
v -0.704212 -0.673391 -0.699206
v -0.630339 -0.722751 -0.699206
v -0.589516 -0.732029 -0.712582
v -0.532778 -0.756347 -0.717913
v -0.502758 -0.773343 -0.715938
v -0.446329 -0.825241 -0.689069
v -0.443731 -0.828514 -0.686808
v -0.212735 -0.876701 -0.684288
v -0.201592 -0.883632 -0.678988
v -0.222624 -0.872494 -0.686808
v -0.193976 -0.887377 -0.675897
v -0.185197 -0.895236 -0.668012
v -0.164665 -0.893701 -0.665921
v -0.119695 -0.884755 -0.665921
v 0.688924 -0.052578 -0.693378
v 0.731371 0.039990 -0.690795
v 0.666568 0.239030 -0.737185
v 0.663051 0.289291 -0.731866
v 0.659426 0.302819 -0.731866
v 0.651929 0.348502 -0.728399
v 0.540398 0.590556 -0.707805
v 0.520097 0.622760 -0.702752
v 0.517370 0.633812 -0.698459
v 0.525950 0.646600 -0.687435
v 0.523869 0.696440 -0.651429
v 0.474016 0.636213 -0.705192
v 0.406888 0.654199 -0.705192
v 0.324917 0.636088 -0.726612
v 0.271870 0.606465 -0.742263
v 0.119885 0.551383 -0.762658
v -0.186874 0.529921 -0.730195
v -0.226647 0.519263 -0.730195
v -0.298015 0.507552 -0.724781
v -0.809512 0.151933 -0.695070
v -0.819162 0.115917 -0.695070
v -0.786305 -0.207089 -0.749502
v -0.764313 -0.465276 -0.724279
v -0.758352 -0.501602 -0.721523
v -0.752859 -0.600769 -0.706123
v -0.748190 -0.605336 -0.707324
v -0.734812 -0.628644 -0.705692
v -0.732214 -0.640124 -0.701923
v -0.699360 -0.672979 -0.701923
v -0.687880 -0.675576 -0.705692
v -0.450497 -0.777858 -0.722872
v -0.372779 -0.798684 -0.722872
v -0.465398 -0.775413 -0.721741
v -0.352225 -0.800121 -0.725046
v -0.125672 -0.882598 -0.668669
v -0.094011 -0.874114 -0.668669
v 0.728897 0.044280 -0.693442
v 0.729292 0.045749 -0.693442
v 0.664115 0.241139 -0.738194
v 0.648210 0.357481 -0.728399
v 0.519704 0.611251 -0.707805
v 0.479514 0.613475 -0.714046
v 0.447397 0.626779 -0.714046
v 0.107805 0.544686 -0.764508
v -0.328380 0.494974 -0.724781
v -0.774743 0.308492 -0.682052
v -0.782099 0.175580 -0.702696
v -0.801389 0.129014 -0.702696
v -0.783773 -0.209267 -0.750543
v -0.753249 -0.513921 -0.721523
v -0.508134 -0.757712 -0.721741
v -0.365832 -0.784294 -0.731557
v -0.108964 -0.868813 -0.673643
v 0.064622 -0.796912 -0.673643
v 0.727597 0.047953 -0.694663
v 0.689382 -0.044304 -0.694663
v 0.643841 0.341824 -0.731693
v 0.663081 0.241139 -0.738507
v 0.656378 0.247266 -0.739771
v 0.395604 0.590061 -0.731693
v 0.081427 0.515825 -0.769947
v -0.247043 0.472278 -0.741885
v -0.730099 -0.010777 -0.741885
v -0.753326 -0.185974 -0.756854
v -0.778811 -0.209267 -0.752049
v -0.743197 -0.477897 -0.729099
v -0.473145 -0.747949 -0.729099
v -0.365832 -0.762176 -0.738266
v -0.351812 -0.746835 -0.741158
v -0.191167 -0.725537 -0.727434
v 0.645898 0.111528 -0.727434
v 0.081427 0.247266 -0.796399
v -0.351812 -0.185974 -0.796399
f 1 2 3
f 1 3 4
f 1 4 5
f 6 7 8
f 6 8 9
f 6 9 10
f 6 10 2
f 6 2 1
f 8 11 9
f 9 11 12
f 9 12 13
f 9 13 10
f 14 15 16
f 14 16 17
f 5 4 14
f 5 14 17
f 5 17 18
f 18 17 16
f 18 16 19
f 18 19 20
f 21 22 23
f 21 23 6
f 21 6 1
f 21 1 5
f 21 5 18
f 21 18 20
f 21 20 24
f 23 25 26
f 23 26 27
f 23 27 28
f 23 28 29
f 23 29 30
f 23 30 31
f 23 31 7
f 23 7 6
f 32 33 34
f 32 34 25
f 32 25 23
f 32 23 22
f 27 35 36
f 27 36 28
f 29 37 30
f 31 38 12
f 31 12 11
f 31 11 8
f 31 8 7
f 39 40 41
f 39 41 42
f 42 41 43
f 42 43 13
f 42 13 12
f 42 12 38
f 10 13 43
f 10 43 44
f 10 44 3
f 10 3 2
f 45 46 47
f 45 47 48
f 45 48 49
f 19 16 15
f 19 15 46
f 19 46 45
f 50 51 52
f 50 52 53
f 24 20 19
f 24 19 45
f 24 45 49
f 24 49 54
f 24 54 55
f 55 54 50
f 55 50 53
f 55 53 56
f 55 56 57
f 57 56 58
f 57 58 59
f 57 59 60
f 57 60 61
f 57 61 62
f 57 62 63
f 63 64 65
f 63 65 66
f 63 66 67
f 63 67 68
f 63 68 69
f 63 69 70
f 63 70 21
f 63 21 24
f 63 24 55
f 63 55 57
f 65 71 72
f 65 72 73
f 65 73 74
f 65 74 66
f 70 75 32
f 70 32 22
f 70 22 21
f 69 76 75
f 69 75 70
f 34 77 78
f 34 78 26
f 34 26 25
f 26 78 35
f 26 35 27
f 79 80 81
f 79 81 36
f 79 36 35
f 79 35 78
f 79 78 77
f 28 36 81
f 28 81 82
f 28 82 37
f 28 37 29
f 30 37 82
f 30 82 83
f 30 83 84
f 30 84 39
f 30 39 42
f 30 42 38
f 30 38 31
f 83 85 86
f 83 86 87
f 83 87 88
f 83 88 89
f 83 89 84
f 84 89 40
f 84 40 39
f 90 88 87
f 90 87 91
f 90 91 92
f 90 92 93
f 43 41 40
f 43 40 89
f 43 89 88
f 43 88 90
f 43 90 44
f 3 44 90
f 3 90 93
f 3 93 94
f 3 94 95
f 3 95 47
f 3 47 46
f 3 46 15
f 3 15 14
f 3 14 4
f 96 97 98
f 96 98 99
f 96 99 100
f 96 100 101
f 96 101 102
f 49 48 103
f 49 103 96
f 49 96 102
f 49 102 104
f 49 104 51
f 49 51 50
f 49 50 54
f 102 101 105
f 102 105 106
f 102 106 107
f 102 107 104
f 52 51 104
f 52 104 107
f 52 107 108
f 108 107 106
f 108 106 109
f 108 109 110
f 56 53 52
f 56 52 108
f 56 108 110
f 56 110 111
f 56 111 112
f 56 112 58
f 111 113 114
f 111 114 115
f 111 115 116
f 111 116 117
f 111 117 118
f 111 118 119
f 111 119 112
f 58 112 119
f 58 119 120
f 58 120 121
f 58 121 59
f 59 121 122
f 59 122 123
f 59 123 60
f 64 124 71
f 64 71 65
f 72 125 126
f 72 126 73
f 66 74 127
f 66 127 67
f 73 126 128
f 73 128 129
f 73 129 127
f 73 127 74
f 130 131 132
f 130 132 33
f 130 33 32
f 130 32 75
f 130 75 76
f 132 133 79
f 132 79 77
f 132 77 34
f 132 34 33
f 134 135 133
f 134 133 132
f 134 132 131
f 136 80 79
f 136 79 133
f 136 133 135
f 137 138 136
f 137 136 135
f 137 135 134
f 139 140 85
f 139 85 83
f 139 83 82
f 139 82 81
f 139 81 80
f 139 80 136
f 139 136 138
f 141 142 143
f 141 143 144
f 141 144 145
f 141 145 146
f 141 146 147
f 141 147 86
f 141 86 85
f 141 85 140
f 148 147 146
f 148 146 149
f 86 147 148
f 86 148 150
f 86 150 151
f 86 151 91
f 86 91 87
f 91 151 152
f 91 152 153
f 91 153 154
f 91 154 92
f 93 92 154
f 93 154 94
f 47 95 155
f 47 155 156
f 47 156 157
f 47 157 158
f 47 158 103
f 47 103 48
f 103 158 159
f 103 159 160
f 103 160 161
f 103 161 97
f 103 97 96
f 162 163 164
f 162 164 165
f 162 165 166
f 162 166 167
f 162 167 168
f 162 168 169
f 99 169 168
f 99 168 170
f 99 170 100
f 100 170 171
f 100 171 172
f 100 172 105
f 100 105 101
f 106 105 172
f 106 172 173
f 106 173 174
f 106 174 109
f 174 173 175
f 174 175 176
f 174 176 177
f 110 109 174
f 110 174 177
f 110 177 178
f 110 178 179
f 110 179 113
f 110 113 111
f 179 180 181
f 179 181 114
f 179 114 113
f 114 181 182
f 114 182 183
f 114 183 184
f 114 184 185
f 114 185 115
f 115 185 186
f 115 186 187
f 115 187 188
f 115 188 116
f 117 189 190
f 117 190 191
f 117 191 118
f 119 118 191
f 119 191 120
f 60 123 192
f 60 192 61
f 63 62 124
f 63 124 64
f 193 194 195
f 129 128 193
f 129 193 195
f 129 195 196
f 196 195 194
f 196 194 197
f 196 197 198
f 196 198 199
f 196 199 200
f 196 200 201
f 67 127 129
f 67 129 196
f 67 196 201
f 67 201 202
f 67 202 203
f 67 203 204
f 67 204 205
f 67 205 206
f 67 206 207
f 67 207 208
f 67 208 209
f 67 209 210
f 67 210 211
f 67 211 212
f 67 212 68
f 68 212 213
f 68 213 214
f 68 214 130
f 68 130 76
f 68 76 69
f 213 215 216
f 213 216 217
f 213 217 214
f 214 217 218
f 214 218 137
f 214 137 134
f 214 134 131
f 214 131 130
f 216 219 220
f 216 220 221
f 216 221 218
f 216 218 217
f 218 221 139
f 218 139 138
f 218 138 137
f 220 222 223
f 220 223 141
f 220 141 140
f 220 140 139
f 220 139 221
f 223 224 225
f 223 225 226
f 223 226 227
f 223 227 142
f 223 142 141
f 228 229 230
f 228 230 224
f 228 224 223
f 228 223 222
f 227 231 143
f 227 143 142
f 144 143 231
f 144 231 232
f 144 232 233
f 149 146 145
f 152 151 150
f 94 154 153
f 94 153 155
f 94 155 95
f 156 234 157
f 160 235 236
f 160 236 237
f 160 237 161
f 161 237 238
f 161 238 239
f 161 239 240
f 161 240 98
f 161 98 97
f 98 240 162
f 98 162 169
f 98 169 99
f 165 241 242
f 165 242 243
f 165 243 166
f 166 243 244
f 166 244 245
f 166 245 167
f 168 167 245
f 168 245 246
f 168 246 247
f 168 247 171
f 168 171 170
f 172 171 247
f 172 247 248
f 172 248 249
f 172 249 175
f 172 175 173
f 248 250 251
f 248 251 252
f 248 252 253
f 248 253 249
f 175 249 253
f 175 253 254
f 175 254 176
f 177 176 254
f 177 254 255
f 177 255 256
f 177 256 178
f 178 256 257
f 178 257 258
f 178 258 180
f 178 180 179
f 258 259 182
f 258 182 181
f 258 181 180
f 184 260 261
f 184 261 186
f 184 186 185
f 186 261 262
f 186 262 263
f 186 263 264
f 186 264 187
f 187 264 265
f 187 265 266
f 187 266 188
f 116 188 266
f 116 266 267
f 116 267 189
f 116 189 117
f 120 191 190
f 120 190 268
f 120 268 269
f 120 269 122
f 120 122 121
f 122 269 270
f 122 270 271
f 122 271 192
f 122 192 123
f 61 192 271
f 61 271 272
f 61 272 273
f 61 273 274
f 61 274 275
f 61 275 125
f 61 125 72
f 61 72 71
f 61 71 124
f 61 124 62
f 275 197 194
f 275 194 193
f 275 193 128
f 275 128 126
f 275 126 125
f 274 276 198
f 274 198 197
f 274 197 275
f 198 276 277
f 198 277 199
f 199 277 278
f 199 278 279
f 199 279 280
f 199 280 200
f 201 200 280
f 201 280 281
f 201 281 282
f 201 282 202
f 202 282 283
f 202 283 203
f 208 284 285
f 208 285 286
f 208 286 209
f 209 286 287
f 209 287 288
f 209 288 210
f 210 288 289
f 210 289 290
f 210 290 291
f 210 291 292
f 210 292 293
f 210 293 211
f 211 293 294
f 211 294 295
f 211 295 215
f 211 215 213
f 211 213 212
f 294 296 297
f 294 297 298
f 294 298 299
f 294 299 300
f 294 300 295
f 295 300 301
f 295 301 219
f 295 219 216
f 295 216 215
f 299 302 303
f 299 303 304
f 299 304 305
f 299 305 301
f 299 301 300
f 301 305 306
f 301 306 307
f 301 307 228
f 301 228 222
f 301 222 220
f 301 220 219
f 304 308 309
f 304 309 310
f 304 310 311
f 304 311 306
f 304 306 305
f 307 312 313
f 307 313 229
f 307 229 228
f 306 311 314
f 306 314 312
f 306 312 307
f 313 315 230
f 313 230 229
f 230 315 225
f 230 225 224
f 316 232 231
f 316 231 227
f 316 227 226
f 316 226 317
f 316 317 318
f 233 232 316
f 155 153 152
f 155 152 150
f 155 150 148
f 155 148 149
f 155 149 145
f 155 145 144
f 155 144 233
f 155 233 316
f 155 316 318
f 155 318 319
f 155 319 234
f 155 234 156
f 157 234 319
f 157 319 320
f 157 320 159
f 157 159 158
f 159 320 321
f 159 321 322
f 159 322 235
f 159 235 160
f 236 238 237
f 323 324 325
f 323 325 326
f 323 326 327
f 242 328 324
f 242 324 323
f 242 323 244
f 242 244 243
f 245 244 323
f 245 323 327
f 245 327 329
f 245 329 330
f 245 330 331
f 245 331 332
f 245 332 333
f 245 333 246
f 247 246 333
f 247 333 334
f 247 334 335
f 247 335 336
f 247 336 337
f 247 337 338
f 247 338 250
f 247 250 248
f 337 339 340
f 337 340 341
f 337 341 338
f 338 341 251
f 338 251 250
f 252 251 341
f 252 341 340
f 252 340 342
f 252 342 343
f 252 343 344
f 254 253 252
f 254 252 344
f 254 344 345
f 254 345 255
f 255 345 346
f 255 346 347
f 255 347 257
f 255 257 256
f 257 347 348
f 257 348 349
f 257 349 259
f 257 259 258
f 182 259 349
f 182 349 350
f 182 350 183
f 351 262 261
f 351 261 260
f 352 353 354
f 352 354 263
f 352 263 262
f 352 262 351
f 355 354 353
f 355 353 356
f 263 354 355
f 263 355 265
f 263 265 264
f 266 265 355
f 266 355 356
f 266 356 357
f 266 357 358
f 266 358 359
f 266 359 360
f 266 360 361
f 266 361 362
f 266 362 363
f 266 363 267
f 190 189 267
f 190 267 363
f 190 363 364
f 190 364 365
f 190 365 366
f 190 366 268
f 268 366 367
f 268 367 368
f 268 368 369
f 268 369 370
f 268 370 371
f 268 371 372
f 268 372 270
f 268 270 269
f 271 270 372
f 271 372 272
f 272 372 371
f 272 371 373
f 272 373 374
f 272 374 375
f 272 375 376
f 272 376 273
f 273 376 278
f 273 278 277
f 273 277 276
f 273 276 274
f 377 378 279
f 377 279 278
f 377 278 376
f 377 376 375
f 377 375 379
f 280 279 378
f 280 378 281
f 281 378 377
f 281 377 283
f 281 283 282
f 205 380 206
f 206 380 381
f 206 381 207
f 285 382 383
f 285 383 287
f 285 287 286
f 287 383 384
f 287 384 289
f 287 289 288
f 291 385 386
f 291 386 387
f 291 387 292
f 292 387 388
f 292 388 389
f 292 389 296
f 292 296 294
f 292 294 293
f 389 390 391
f 389 391 392
f 389 392 297
f 389 297 296
f 297 392 393
f 297 393 394
f 297 394 298
f 393 395 396
f 393 396 397
f 393 397 394
f 298 394 397
f 298 397 398
f 298 398 302
f 298 302 299
f 398 399 400
f 398 400 401
f 398 401 402
f 398 402 403
f 398 403 303
f 398 303 302
f 303 403 404
f 303 404 405
f 303 405 308
f 303 308 304
f 402 406 407
f 402 407 408
f 402 408 409
f 402 409 410
f 402 410 404
f 402 404 403
f 405 411 412
f 405 412 309
f 405 309 308
f 404 410 413
f 404 413 411
f 404 411 405
f 413 414 415
f 413 415 412
f 413 412 411
f 309 412 415
f 309 415 310
f 310 415 414
f 310 414 416
f 310 416 417
f 310 417 314
f 310 314 311
f 314 417 418
f 314 418 317
f 314 317 226
f 314 226 225
f 314 225 315
f 314 315 313
f 314 313 312
f 418 417 416
f 418 416 419
f 418 419 420
f 418 420 421
f 418 421 422
f 418 422 423
f 318 317 418
f 318 418 423
f 318 423 321
f 318 321 320
f 318 320 319
f 321 423 422
f 321 422 424
f 321 424 425
f 321 425 426
f 321 426 322
f 322 426 427
f 322 427 239
f 322 239 238
f 322 238 236
f 322 236 235
f 239 427 428
f 239 428 163
f 239 163 162
f 239 162 240
f 164 429 241
f 164 241 165
f 430 328 242
f 430 242 241
f 430 241 429
f 431 432 433
f 330 434 431
f 330 431 433
f 330 433 331
f 331 433 432
f 331 432 435
f 331 435 436
f 331 436 437
f 331 437 438
f 331 438 439
f 331 439 440
f 331 440 332
f 333 332 440
f 333 440 441
f 333 441 442
f 333 442 443
f 333 443 444
f 333 444 334
f 334 444 445
f 334 445 446
f 334 446 447
f 334 447 335
f 335 447 448
f 335 448 336
f 336 448 449
f 336 449 450
f 336 450 339
f 336 339 337
f 340 339 450
f 340 450 451
f 340 451 342
f 342 451 452
f 342 452 453
f 342 453 343
f 344 343 453
f 344 453 454
f 344 454 346
f 344 346 345
f 346 454 455
f 346 455 348
f 346 348 347
f 348 455 456
f 348 456 457
f 348 457 458
f 348 458 350
f 348 350 349
f 183 350 458
f 183 458 459
f 183 459 460
f 183 460 352
f 183 352 351
f 183 351 260
f 183 260 184
f 460 357 356
f 460 356 353
f 460 353 352
f 459 461 462
f 459 462 463
f 459 463 358
f 459 358 357
f 459 357 460
f 462 464 465
f 462 465 463
f 358 463 465
f 358 465 359
f 361 466 467
f 361 467 468
f 361 468 469
f 361 469 362
f 363 362 469
f 363 469 470
f 363 470 471
f 363 471 364
f 365 367 366
f 369 472 473
f 369 473 474
f 369 474 475
f 369 475 370
f 371 370 475
f 371 475 476
f 371 476 373
f 373 476 477
f 373 477 478
f 373 478 479
f 373 479 374
f 379 375 374
f 379 374 479
f 379 479 480
f 379 480 481
f 481 480 482
f 481 482 483
f 481 483 484
f 203 283 377
f 203 377 379
f 203 379 481
f 203 481 484
f 203 484 204
f 204 484 483
f 204 483 485
f 204 485 486
f 204 486 381
f 204 381 380
f 204 380 205
f 207 381 486
f 207 486 487
f 207 487 284
f 207 284 208
f 487 488 382
f 487 382 285
f 487 285 284
f 489 490 384
f 489 384 383
f 489 383 382
f 489 382 488
f 289 384 490
f 289 490 290
f 386 491 492
f 386 492 388
f 386 388 387
f 388 492 493
f 388 493 390
f 388 390 389
f 493 494 391
f 493 391 390
f 391 494 495
f 391 495 395
f 391 395 393
f 391 393 392
f 496 497 498
f 496 498 396
f 496 396 395
f 496 395 495
f 496 495 499
f 397 396 498
f 397 498 500
f 397 500 399
f 397 399 398
f 498 497 501
f 498 501 502
f 498 502 503
f 498 503 500
f 500 503 504
f 500 504 505
f 500 505 400
f 500 400 399
f 400 505 506
f 400 506 507
f 400 507 508
f 400 508 509
f 400 509 401
f 401 509 510
f 401 510 406
f 401 406 402
f 508 511 512
f 508 512 513
f 508 513 514
f 508 514 510
f 508 510 509
f 510 514 515
f 510 515 516
f 510 516 407
f 510 407 406
f 513 517 518
f 513 518 515
f 513 515 514
f 515 518 519
f 515 519 520
f 515 520 516
f 407 516 520
f 407 520 408
f 408 520 519
f 408 519 521
f 408 521 522
f 408 522 523
f 408 523 409
f 409 523 524
f 409 524 419
f 409 419 416
f 409 416 414
f 409 414 413
f 409 413 410
f 419 524 525
f 419 525 526
f 419 526 527
f 419 527 528
f 419 528 420
f 420 528 529
f 420 529 530
f 420 530 421
f 530 529 531
f 530 531 532
f 530 532 533
f 422 421 530
f 422 530 533
f 422 533 534
f 422 534 424
f 424 534 535
f 424 535 536
f 424 536 425
f 425 536 537
f 425 537 538
f 425 538 428
f 425 428 427
f 425 427 426
f 428 538 539
f 428 539 430
f 428 430 429
f 428 429 164
f 428 164 163
f 539 540 325
f 539 325 324
f 539 324 328
f 539 328 430
f 541 326 325
f 541 325 540
f 327 326 541
f 327 541 542
f 327 542 329
f 329 542 543
f 329 543 434
f 329 434 330
f 436 544 545
f 436 545 437
f 437 545 546
f 437 546 547
f 437 547 548
f 437 548 438
f 438 548 549
f 438 549 550
f 438 550 551
f 438 551 439
f 440 439 551
f 440 551 552
f 440 552 441
f 443 553 554
f 443 554 445
f 443 445 444
f 445 554 555
f 445 555 556
f 445 556 446
f 446 556 557
f 446 557 558
f 446 558 449
f 446 449 448
f 446 448 447
f 557 559 560
f 557 560 561
f 557 561 558
f 449 558 561
f 449 561 562
f 449 562 452
f 449 452 451
f 449 451 450
f 562 561 560
f 562 560 563
f 562 563 564
f 562 564 565
f 453 452 562
f 453 562 565
f 453 565 566
f 453 566 456
f 453 456 455
f 453 455 454
f 456 566 567
f 456 567 568
f 456 568 569
f 456 569 570
f 456 570 571
f 456 571 572
f 456 572 573
f 456 573 457
f 458 457 573
f 458 573 574
f 458 574 575
f 458 575 576
f 458 576 461
f 458 461 459
f 575 577 578
f 575 578 576
f 576 578 579
f 576 579 464
f 576 464 462
f 576 462 461
f 359 465 464
f 359 464 579
f 359 579 580
f 359 580 360
f 360 580 581
f 360 581 466
f 360 466 361
f 469 468 582
f 469 582 583
f 469 583 470
f 470 583 584
f 470 584 471
f 475 474 585
f 475 585 477
f 475 477 476
f 477 585 586
f 477 586 587
f 477 587 588
f 477 588 589
f 477 589 478
f 479 478 589
f 479 589 590
f 479 590 591
f 479 591 482
f 479 482 480
f 591 590 592
f 591 592 593
f 591 593 594
f 591 594 595
f 591 595 596
f 591 596 597
f 591 597 598
f 483 482 591
f 483 591 598
f 483 598 599
f 483 599 485
f 598 597 600
f 598 600 601
f 598 601 602
f 598 602 603
f 598 603 599
f 485 599 603
f 485 603 489
f 485 489 488
f 485 488 487
f 485 487 486
f 290 490 489
f 290 489 603
f 290 603 602
f 290 602 385
f 290 385 291
f 602 601 604
f 602 604 605
f 602 605 606
f 602 606 607
f 602 607 491
f 602 491 386
f 602 386 385
f 607 499 495
f 607 495 494
f 607 494 493
f 607 493 492
f 607 492 491
f 606 608 609
f 606 609 610
f 606 610 496
f 606 496 499
f 606 499 607
f 610 611 501
f 610 501 497
f 610 497 496
f 609 612 613
f 609 613 611
f 609 611 610
f 613 614 502
f 613 502 501
f 613 501 611
f 615 616 614
f 615 614 613
f 615 613 612
f 502 614 616
f 502 616 617
f 502 617 618
f 502 618 504
f 502 504 503
f 504 618 619
f 504 619 620
f 504 620 506
f 504 506 505
f 506 620 621
f 506 621 622
f 506 622 623
f 506 623 507
f 507 623 624
f 507 624 625
f 507 625 511
f 507 511 508
f 625 626 627
f 625 627 512
f 625 512 511
f 628 629 630
f 628 630 631
f 628 631 627
f 628 627 626
f 512 627 631
f 512 631 517
f 512 517 513
f 519 518 517
f 519 517 631
f 519 631 630
f 519 630 632
f 519 632 521
f 630 629 633
f 630 633 634
f 630 634 632
f 521 632 634
f 521 634 635
f 521 635 636
f 521 636 637
f 521 637 638
f 521 638 522
f 522 638 639
f 522 639 640
f 522 640 525
f 522 525 524
f 522 524 523
f 525 640 641
f 525 641 642
f 525 642 526
f 526 642 643
f 526 643 644
f 526 644 645
f 526 645 527
f 527 645 646
f 527 646 531
f 527 531 529
f 527 529 528
f 531 646 647
f 531 647 648
f 531 648 532
f 533 532 648
f 533 648 649
f 533 649 535
f 533 535 534
f 535 649 650
f 535 650 651
f 535 651 537
f 535 537 536
f 537 651 652
f 537 652 653
f 537 653 654
f 537 654 655
f 537 655 543
f 537 543 542
f 537 542 541
f 537 541 540
f 537 540 539
f 537 539 538
f 654 656 657
f 654 657 658
f 654 658 659
f 654 659 655
f 655 659 435
f 655 435 432
f 655 432 431
f 655 431 434
f 655 434 543
f 657 546 545
f 657 545 544
f 657 544 658
f 435 659 658
f 435 658 544
f 435 544 436
f 547 660 661
f 547 661 549
f 547 549 548
f 549 661 662
f 549 662 663
f 549 663 664
f 549 664 550
f 551 550 664
f 551 664 665
f 551 665 552
f 441 552 665
f 441 665 666
f 441 666 442
f 667 668 555
f 667 555 554
f 667 554 553
f 555 668 669
f 555 669 559
f 555 559 557
f 555 557 556
f 560 559 669
f 560 669 670
f 560 670 563
f 563 670 671
f 563 671 672
f 563 672 673
f 563 673 564
f 565 564 673
f 565 673 674
f 565 674 567
f 565 567 566
f 567 674 675
f 567 675 676
f 567 676 677
f 567 677 568
f 568 677 678
f 568 678 569
f 679 680 572
f 679 572 571
f 573 572 680
f 573 680 574
f 579 578 577
f 579 577 681
f 579 681 581
f 579 581 580
f 581 681 682
f 581 682 467
f 581 467 466
f 584 583 582
f 584 582 683
f 584 683 684
f 364 471 584
f 364 584 684
f 364 684 368
f 364 368 367
f 364 367 365
f 685 686 473
f 685 473 472
f 473 686 586
f 473 586 585
f 473 585 474
f 687 688 689
f 687 689 690
f 589 588 687
f 589 687 690
f 589 690 592
f 589 592 590
f 592 690 689
f 592 689 691
f 592 691 692
f 592 692 593
f 594 693 694
f 594 694 695
f 594 695 696
f 594 696 697
f 594 697 595
f 595 697 698
f 595 698 699
f 595 699 596
f 596 699 700
f 596 700 600
f 596 600 597
f 600 700 701
f 600 701 702
f 600 702 703
f 600 703 704
f 600 704 705
f 600 705 706
f 600 706 604
f 600 604 601
f 604 706 707
f 604 707 708
f 604 708 709
f 604 709 710
f 604 710 605
f 605 710 711
f 605 711 712
f 605 712 608
f 605 608 606
f 711 713 714
f 711 714 715
f 711 715 716
f 711 716 717
f 711 717 712
f 712 717 718
f 712 718 615
f 712 615 612
f 712 612 609
f 712 609 608
f 716 719 720
f 716 720 718
f 716 718 717
f 718 720 721
f 718 721 617
f 718 617 616
f 718 616 615
f 721 722 723
f 721 723 619
f 721 619 618
f 721 618 617
f 619 723 621
f 619 621 620
f 622 724 725
f 622 725 624
f 622 624 623
f 624 725 726
f 624 726 727
f 624 727 628
f 624 628 626
f 624 626 625
f 726 728 729
f 726 729 730
f 726 730 727
f 727 730 731
f 727 731 633
f 727 633 629
f 727 629 628
f 634 633 731
f 634 731 732
f 634 732 733
f 634 733 635
f 635 733 734
f 635 734 636
f 637 735 736
f 637 736 737
f 637 737 738
f 637 738 739
f 637 739 740
f 637 740 639
f 637 639 638
f 639 740 741
f 639 741 742
f 639 742 641
f 639 641 640
f 641 742 743
f 641 743 744
f 641 744 643
f 641 643 642
f 643 744 745
f 643 745 746
f 643 746 747
f 643 747 644
f 644 747 647
f 644 647 646
f 644 646 645
f 648 647 747
f 648 747 746
f 648 746 748
f 648 748 749
f 648 749 650
f 648 650 649
f 650 749 750
f 650 750 751
f 650 751 752
f 650 752 753
f 650 753 652
f 650 652 651
f 652 753 754
f 652 754 755
f 652 755 756
f 652 756 653
f 653 756 757
f 653 757 758
f 653 758 759
f 653 759 656
f 653 656 654
f 758 662 661
f 758 661 660
f 758 660 759
f 759 660 547
f 759 547 546
f 759 546 657
f 759 657 656
f 757 760 761
f 757 761 663
f 757 663 662
f 757 662 758
f 761 760 762
f 761 762 763
f 665 664 663
f 665 663 761
f 665 761 763
f 665 763 764
f 665 764 666
f 442 666 764
f 442 764 765
f 442 765 766
f 442 766 667
f 442 667 553
f 442 553 443
f 766 767 671
f 766 671 670
f 766 670 669
f 766 669 668
f 766 668 667
f 768 672 671
f 768 671 767
f 768 767 769
f 768 769 770
f 768 770 771
f 673 672 768
f 673 768 772
f 673 772 675
f 673 675 674
f 773 772 768
f 773 768 771
f 773 771 774
f 773 774 775
f 676 675 772
f 676 772 773
f 676 773 776
f 777 678 677
f 777 677 676
f 777 676 776
f 777 776 778
f 570 569 678
f 570 678 777
f 574 680 679
f 574 679 779
f 574 779 682
f 574 682 681
f 574 681 577
f 574 577 575
f 683 582 468
f 683 468 467
f 683 467 682
f 683 682 779
f 683 779 780
f 368 684 683
f 368 683 780
f 368 780 781
f 368 781 782
f 368 782 685
f 368 685 472
f 368 472 369
f 782 783 784
f 782 784 587
f 782 587 586
f 782 586 686
f 782 686 685
f 587 784 785
f 587 785 786
f 587 786 688
f 587 688 687
f 587 687 588
f 691 786 785
f 691 785 787
f 691 787 788
f 691 788 692
f 689 688 786
f 689 786 691
f 696 789 790
f 696 790 791
f 696 791 698
f 696 698 697
f 698 791 701
f 698 701 700
f 698 700 699
f 705 792 793
f 705 793 707
f 705 707 706
f 707 793 794
f 707 794 795
f 707 795 796
f 707 796 708
f 709 797 713
f 709 713 711
f 709 711 710
f 798 799 714
f 798 714 713
f 798 713 797
f 715 800 801
f 715 801 719
f 715 719 716
f 802 803 804
f 802 804 801
f 802 801 800
f 801 804 722
f 801 722 721
f 801 721 720
f 801 720 719
f 621 723 722
f 621 722 804
f 621 804 803
f 621 803 805
f 621 805 724
f 621 724 622
f 806 807 808
f 806 808 728
f 806 728 726
f 806 726 725
f 806 725 724
f 806 724 805
f 808 809 729
f 808 729 728
f 729 809 732
f 729 732 731
f 729 731 730
f 636 734 810
f 636 810 735
f 636 735 637
f 810 811 736
f 810 736 735
f 812 741 740
f 812 740 739
f 812 739 813
f 814 743 742
f 814 742 741
f 814 741 812
f 814 812 815
f 816 745 744
f 816 744 743
f 816 743 814
f 746 745 816
f 746 816 817
f 746 817 748
f 748 817 750
f 748 750 749
f 751 818 819
f 751 819 820
f 751 820 752
f 752 820 821
f 752 821 822
f 752 822 823
f 752 823 824
f 752 824 825
f 752 825 754
f 752 754 753
f 754 825 826
f 754 826 755
f 755 826 762
f 755 762 760
f 755 760 757
f 755 757 756
f 764 763 762
f 764 762 826
f 764 826 825
f 764 825 824
f 764 824 827
f 764 827 828
f 764 828 765
f 827 829 830
f 827 830 831
f 827 831 832
f 827 832 833
f 827 833 834
f 827 834 835
f 827 835 828
f 765 828 835
f 765 835 836
f 765 836 837
f 765 837 838
f 765 838 839
f 765 839 840
f 765 840 769
f 765 769 767
f 765 767 766
f 841 840 839
f 841 839 842
f 841 842 843
f 841 843 844
f 770 769 840
f 770 840 841
f 770 841 845
f 770 845 846
f 847 846 845
f 847 845 848
f 847 848 849
f 774 771 770
f 774 770 846
f 774 846 847
f 850 775 774
f 850 774 847
f 850 847 849
f 850 849 851
f 778 776 773
f 778 773 775
f 778 775 850
f 780 779 679
f 780 679 571
f 780 571 570
f 780 570 777
f 780 777 778
f 780 778 850
f 780 850 851
f 780 851 852
f 780 852 853
f 780 853 854
f 780 854 781
f 781 854 855
f 781 855 856
f 781 856 783
f 781 783 782
f 856 857 858
f 856 858 859
f 856 859 787
f 856 787 785
f 856 785 784
f 856 784 783
f 788 787 859
f 788 859 860
f 695 861 789
f 695 789 696
f 701 791 790
f 701 790 702
f 862 794 793
f 862 793 792
f 795 863 864
f 795 864 865
f 795 865 796
f 708 796 865
f 708 865 866
f 708 866 867
f 708 867 798
f 708 798 797
f 708 797 709
f 867 868 869
f 867 869 870
f 867 870 799
f 867 799 798
f 714 799 870
f 714 870 871
f 714 871 802
f 714 802 800
f 714 800 715
f 869 872 873
f 869 873 871
f 869 871 870
f 871 873 874
f 871 874 875
f 871 875 876
f 871 876 877
f 871 877 878
f 871 878 806
f 871 806 805
f 871 805 803
f 871 803 802
f 879 880 807
f 879 807 806
f 879 806 878
f 879 878 881
f 882 883 811
f 882 811 810
f 882 810 734
f 882 734 733
f 882 733 732
f 882 732 809
f 882 809 808
f 882 808 807
f 882 807 880
f 736 811 883
f 736 883 884
f 736 884 737
f 737 884 885
f 737 885 738
f 886 819 818
f 822 887 830
f 822 830 829
f 822 829 823
f 824 823 829
f 824 829 827
f 888 889 834
f 888 834 833
f 835 834 889
f 835 889 890
f 835 890 891
f 835 891 836
f 838 892 842
f 838 842 839
f 844 843 893
f 844 893 894
f 844 894 895
f 848 845 841
f 848 841 844
f 848 844 895
f 848 895 896
f 896 895 894
f 896 894 897
f 896 897 898
f 851 849 848
f 851 848 896
f 851 896 898
f 851 898 852
f 853 899 900
f 853 900 901
f 853 901 902
f 853 902 855
f 853 855 854
f 855 902 903
f 855 903 904
f 855 904 857
f 855 857 856
f 694 905 906
f 694 906 861
f 694 861 695
f 702 790 789
f 702 789 861
f 702 861 906
f 702 906 703
f 907 863 795
f 907 795 794
f 907 794 862
f 865 864 908
f 865 908 909
f 865 909 910
f 865 910 866
f 866 910 911
f 866 911 912
f 866 912 913
f 866 913 868
f 866 868 867
f 913 914 872
f 913 872 869
f 913 869 868
f 874 873 872
f 874 872 914
f 874 914 915
f 916 917 877
f 916 877 876
f 916 876 918
f 881 878 877
f 881 877 917
f 881 917 919
f 920 885 884
f 920 884 883
f 920 883 882
f 813 739 738
f 813 738 885
f 813 885 920
f 813 920 921
f 821 922 923
f 821 923 887
f 821 887 822
f 830 887 923
f 830 923 831
f 890 889 888
f 890 888 924
f 836 891 925
f 836 925 837
f 893 843 842
f 893 842 892
f 893 892 926
f 897 894 893
f 897 893 926
f 897 926 927
f 897 927 928
f 852 898 897
f 852 897 928
f 852 928 899
f 852 899 853
f 901 929 903
f 901 903 902
f 858 857 904
f 858 904 930
f 931 932 933
f 931 933 905
f 931 905 694
f 931 694 693
f 703 906 905
f 703 905 933
f 703 933 704
f 934 908 864
f 934 864 863
f 934 863 907
f 935 911 910
f 935 910 909
f 912 915 914
f 912 914 913
f 918 876 875
f 918 875 936
f 919 917 916
f 919 916 937
f 938 921 920
f 938 920 882
f 938 882 880
f 938 880 879
f 939 815 812
f 939 812 813
f 939 813 921
f 939 921 938
f 940 922 821
f 940 821 820
f 940 820 819
f 940 819 886
f 940 886 941
f 832 831 923
f 832 923 922
f 832 922 940
f 942 925 891
f 942 891 890
f 942 890 924
f 942 924 943
f 942 943 944
f 926 892 838
f 926 838 837
f 926 837 925
f 926 925 942
f 926 942 945
f 926 945 927
f 928 927 945
f 928 945 900
f 928 900 899
f 930 904 903
f 930 903 929
f 930 929 946
f 930 946 947
f 860 859 858
f 860 858 930
f 860 930 947
f 860 947 948
f 860 948 932
f 860 932 931
f 704 933 932
f 704 932 948
f 704 948 949
f 704 949 950
f 704 950 934
f 704 934 907
f 704 907 862
f 704 862 792
f 704 792 705
f 950 951 935
f 950 935 909
f 950 909 908
f 950 908 934
f 952 936 875
f 952 875 874
f 952 874 915
f 952 915 912
f 952 912 911
f 952 911 935
f 952 935 951
f 953 937 916
f 953 916 918
f 953 918 936
f 953 936 952
f 954 955 939
f 954 939 938
f 954 938 879
f 954 879 881
f 954 881 919
f 954 919 937
f 954 937 953
f 956 941 886
f 956 886 818
f 956 818 751
f 956 751 750
f 956 750 817
f 956 817 816
f 956 816 814
f 956 814 815
f 956 815 939
f 956 939 955
f 943 924 888
f 943 888 833
f 943 833 832
f 943 832 940
f 943 940 941
f 943 941 956
f 900 945 942
f 900 942 944
f 900 944 957
f 900 957 946
f 900 946 929
f 900 929 901
f 947 946 957
f 947 957 958
f 947 958 949
f 947 949 948
f 949 958 954
f 949 954 953
f 949 953 952
f 949 952 951
f 949 951 950
f 957 944 943
f 957 943 956
f 957 956 955
f 957 955 954
f 957 954 958
f 593 692 788
f 593 788 860
f 593 860 931
f 593 931 693
f 593 693 594
